Coordinates
version=1
nRows=11
nColumns=40
inDegrees=yes

Units are S.I. units (second, meters, Newtons, ...)
Angles are in degrees.

endheader
time	pelvis_tilt	pelvis_list	pelvis_rotation	pelvis_tx	pelvis_ty	pelvis_tz	hip_flexion_r	hip_adduction_r	hip_rotation_r	knee_angle_r	knee_angle_r_beta	ankle_angle_r	subtalar_angle_r	mtp_angle_r	hip_flexion_l	hip_adduction_l	hip_rotation_l	knee_angle_l	knee_angle_l_beta	ankle_angle_l	subtalar_angle_l	mtp_angle_l	lumbar_extension	lumbar_bending	lumbar_rotation	arm_flex_r	arm_add_r	arm_rot_r	elbow_flex_r	pro_sup_r	wrist_flex_r	wrist_dev_r	arm_flex_l	arm_add_l	arm_rot_l	elbow_flex_l	pro_sup_l	wrist_flex_l	wrist_dev_l
     34.83500000	     -4.93266359	     -4.49913074	     13.47045808	      1.04318714	      0.92057189	      0.53853178	      6.72544369	      4.80831524	    -15.77012312	     17.41091614	     17.41091614	     18.16077262	     -4.22549959	     -2.23075328	     31.14326103	     -7.80635786	      3.77608532	     17.21441630	     17.21441630	     -6.75963329	     -0.60561721	      0.52657111	     -9.61185074	      3.48151572	      4.78477776	     70.54416404	    -18.30784817	     -0.53566568	     64.40348824	     45.08819502	      0.00000000	      0.00000000	    -26.71864966	     -8.73505998	     31.57445681	     38.20530305	     42.37958323	      0.00000000	      0.00000000
     34.85807143	     -4.72135476	     -4.65267820	     13.48510027	      1.04477782	      0.91971417	      0.53578220	      5.93479028	      4.98913536	    -15.72501245	     17.17671406	     17.17671406	     18.54330590	     -4.10038491	     -2.26084689	     30.48750688	     -7.83450766	      4.20655901	     17.57343635	     17.57343635	     -5.39957758	     -1.05271485	     -0.34228486	     -9.81751380	      3.58960234	      4.61915704	     71.70388237	    -17.66722402	     -0.30181370	     65.90764113	     45.03701651	      0.00000000	      0.00000000	    -26.42377688	     -8.68122633	     31.65290326	     38.06792981	     42.39792495	      0.00000000	      0.00000000
     34.88114286	     -4.72568725	     -4.81782945	     13.54192899	      1.04665448	      0.91876924	      0.53262587	      5.25001702	      5.13969139	    -15.68747243	     16.73529035	     16.73529035	     18.83522486	     -3.96162520	     -2.16655397	     29.94766717	     -7.77485787	      4.69030130	     17.74954040	     17.74954040	     -4.09050437	     -1.62365753	     -1.22819882	     -9.64254266	      3.60661893	      4.44486128	     71.69642509	    -17.41565164	      0.08374031	     68.03386980	     44.96068889	      0.00000000	      0.00000000	    -26.03418773	     -8.67050537	     31.71634687	     37.65694307	     42.45205384	      0.00000000	      0.00000000
     34.90421429	     -4.78543224	     -4.78759838	     13.52489317	      1.04856109	      0.91791811	      0.52922405	      4.75239861	      5.00027805	    -15.54871434	     16.66119530	     16.66119530	     19.19275479	     -3.99166665	     -2.22080861	     29.46336980	     -7.55485707	      4.89101328	     18.03306392	     18.03306392	     -2.70762454	     -2.07377405	     -1.74599480	     -9.43654750	      3.38830219	      4.51976504	     71.90924739	    -17.24512997	      0.19211959	     68.51046546	     44.94410998	      0.00000000	      0.00000000	    -25.44475237	     -8.97700412	     31.61557956	     37.60413306	     42.48173073	      0.00000000	      0.00000000
     34.92728571	     -4.80237160	     -4.76342560	     13.50329728	      1.05056240	      0.91733546	      0.52549470	      4.12836265	      4.87128498	    -15.42541712	     16.43772640	     16.43772640	     19.42357121	     -3.95212972	     -2.19593960	     29.07809264	     -7.32368378	      5.12525066	     18.52913540	     18.52913540	     -1.38766575	     -2.68101911	     -2.13418758	     -9.32097934	      3.21825954	      4.50521794	     72.02205696	    -17.09223577	      0.32188076	     69.14420393	     44.92159332	      0.00000000	      0.00000000	    -24.78465441	     -9.26925778	     31.51207735	     37.50817686	     42.51499845	      0.00000000	      0.00000000
     34.95035714	     -4.90128292	     -4.76626911	     13.47053992	      1.05260007	      0.91705796	      0.52140520	      3.48045156	      4.73926333	    -15.39332485	     15.99579818	     15.99579818	     19.56693384	     -3.68815435	     -1.94900145	     28.89020431	     -7.02971307	      5.57957325	     19.21247921	     19.21247921	      0.35907663	     -3.39553975	     -0.74205248	     -9.21764595	      3.10051109	      5.20139679	     71.15452179	    -18.33939881	      0.68547787	     72.50958061	     44.82940872	      0.00000000	      0.00000000	    -23.48701463	     -9.45853835	     31.41097608	     36.32170739	     42.70168753	      0.00000000	      0.00000000
     34.97342857	     -5.00993142	     -4.64281419	     13.36705816	      1.05466566	      0.91695093	      0.51715398	      2.92781493	      4.42517942	    -15.28379863	     15.77956155	     15.77956155	     19.63862484	     -3.60348985	     -1.89574296	     28.67848507	     -6.68919361	      5.60595886	     19.80349063	     19.80349063	      1.28935892	     -3.89351938	     -1.05062529	     -9.04814717	      2.86829073	      5.15193326	     71.06964525	    -18.09489279	      0.79061551	     72.58555479	     44.82568136	      0.00000000	      0.00000000	    -22.69964031	     -9.90029492	     31.26981406	     36.35253783	     42.73662957	      0.00000000	      0.00000000
     34.99650000	     -5.09522640	     -4.54048974	     13.23087384	      1.05679359	      0.91706782	      0.51267107	      2.30797200	      4.11608500	    -15.18858348	     15.47378654	     15.47378654	     19.60634148	     -3.37507288	     -1.81476902	     28.54605522	     -6.35448844	      5.68163146	     20.54596901	     20.54596901	      2.12504532	     -4.54307661	     -1.22077712	     -8.91957459	      2.70518705	      5.17307977	     70.92596621	    -17.91484928	      0.87208952	     72.67744150	     44.82228599	      0.00000000	      0.00000000	    -21.85915320	    -10.33952729	     31.09212421	     36.35435259	     42.77785631	      0.00000000	      0.00000000
     35.01957143	     -5.14780903	     -4.47805342	     13.03571086	      1.05895759	      0.91740187	      0.50796350	      1.59930668	      3.82906709	    -15.17232648	     15.04854910	     15.04854910	     19.48052846	     -2.89307304	     -1.73585181	     28.47550177	     -6.02910453	      5.90575118	     21.45431920	     21.45431920	      2.90746676	     -5.42182011	     -1.09351800	     -8.84617325	      2.64693824	      5.32804727	     70.66164600	    -17.92039469	      0.87942449	     72.77167693	     44.82284700	      0.00000000	      0.00000000	    -20.95052796	    -10.75456646	     30.83786462	     36.27117672	     42.83703780	      0.00000000	      0.00000000
     35.04264286	     -5.32714905	     -4.35146494	     12.78794398	      1.06104971	      0.91779265	      0.50313690	      1.14675913	      3.39763305	    -15.06456861	     14.86633651	     14.86633651	     19.32945474	     -2.61903492	     -1.67267254	     28.35519096	     -5.66076685	      5.88950293	     22.02109100	     22.02109100	      3.44518746	     -5.94990671	     -1.13717114	     -8.65075706	      2.54734068	      5.40123895	     70.30102912	    -17.64963491	      0.99278770	     72.74064440	     44.82026744	      0.00000000	      0.00000000	    -19.87844120	    -11.23464858	     30.58815901	     36.33038872	     42.88523550	      0.00000000	      0.00000000
     35.06571429	     -5.40433860	     -4.26650459	     12.47811947	      1.06317600	      0.91842688	      0.49806387	      0.44394455	      2.94273910	    -15.58115941	     14.41559925	     14.41559925	     19.09537774	     -1.17773144	     -1.93280626	     28.24077372	     -5.19411037	      6.43741359	     22.87484707	     22.87484707	      4.42128656	     -7.44795330	      0.62003879	     -8.56341182	      2.49955149	      6.04547173	     69.60044683	    -18.25156154	      0.57156209	     72.83312245	     44.84613704	      0.00000000	      0.00000000	    -18.47930957	    -11.46644510	     29.69163114	     35.65945703	     43.07875637	      0.00000000	      0.00000000
